<svg stroke-miterlimit="10" style="fill-rule:nonzero;clip-rule:evenodd;stroke-linecap:round;stroke-linejoin:round" viewBox="0 0 24 24" xml:space="preserve" xmlns="http://www.w3.org/2000/svg" xmlns:vectornator="http://vectornator.io"><defs><linearGradient gradientUnits="userSpaceOnUse" id="b" x1="1.09" x2="24" y1="22.722" y2="1.672"><stop offset="0"/><stop offset="1" stop-color="#292929"/></linearGradient><linearGradient gradientTransform="translate(.233 1.923) scale(.97513)" gradientUnits="userSpaceOnUse" id="c" x1="15.075" x2="9.655" y1="5.778" y2="18.863"><stop offset="0" stop-color="#f9fdff"/><stop offset="1" stop-color="#fff" stop-opacity=".763"/></linearGradient><linearGradient gradientTransform="translate(2.064 3.506) scale(.82802)" gradientUnits="userSpaceOnUse" id="e" x1="1.873" x2="7.929" y1="4.603" y2=".849"><stop offset="0" stop-color="#fff" stop-opacity=".925"/><stop offset="1" stop-color="#fff"/></linearGradient><radialGradient cx="5.411" cy="16.015" gradientTransform="translate(.415 2.007) scale(.96579)" gradientUnits="userSpaceOnUse" id="d" r="12.461"><stop offset="0"/><stop offset="1" stop-color="#3d3d3d"/></radialGradient></defs><clipPath id="a"><path d="M0 0h24v24H0z"/></clipPath><g clip-path="url(#a)" vectornator:layerName="lay-1"><path d="M0 .043h24v24H0v-24Z" fill="url(#b)"/><path d="M13.579 8.75c-1.046-.04-1.146-.023-1.904.37-.458.224-1.005.64-1.254.93-.247.293-.402.431-.557.463-.115.024-.224-.036-.464-.092a2.419 2.419 0 0 0-.325-.047c-1.144-.09-2.34.695-2.507 1.718-.065.42-.127.56-.65.836-.34.183-.833.567-1.068.882-1.001 1.325-.978 3.115-.07 4.316.653.864 1.618.961 1.687.981.61.145 1.583.128 5.858.089 4.101-.034 4.988.025 5.477-.12.05-.014.375-.085.636-.208.224-.105.6-.404.629-.426.051-.038.73-.802.903-1.75a3.222 3.222 0 0 0-.201-1.93c-.186-.497-.703-.955-.875-1.137-.259-.276-1.223-.719-1.223-.719s-.099-.757-.12-.903c-.127-.691-.301-1.312-.793-1.844-.2-.218-.754-.797-1.453-1.081-.775-.316-1.692-.327-1.726-.329Z" fill="url(#c)"/><path d="M10.13 11.781a.4.4 0 0 1-.446-.02c-.867-.675-1.907.067-2.01 1.38-.04.39-.104.456-.726.69-.97.364-1.45 1.04-1.45 2.054 0 .819.285 1.378.945 1.872.363.26.531.273 5.438.312 3.613.026 5.166-.013 5.425-.117.906-.377 1.528-1.625 1.269-2.574-.194-.728-.583-1.157-1.411-1.547l-.725-.351-.078-.78c-.09-.91-.31-1.392-.92-1.977a2.78 2.78 0 0 0-2.86-.637c-.726.26-1.299.727-1.647 1.064m2.31.872c.12.12.213.22.287.31.073.09.126.17.164.25a.9.9 0 0 1 .075.254c.013.091.017.194.017.317 0 .11-.005.207-.016.293a.945.945 0 0 1-.164.439 1.655 1.655 0 0 1-.17.204l-.087.091-.087.091-.088.091-.087.091.32.325.321.325.32.325.32.325.23.231.23.231.23.231.23.231.047.047.047.047.046.046.047.047.047.048.047.047.05.046.05.047-.11.105-.109.105-.107.104-.107.104-.103.107-.104.107-.103.108-.104.107-.32-.322-.32-.322-.321-.322-.32-.321-.324-.322-.324-.322-.324-.322-.324-.322-.116.101-.117.101-.116.1-.117.101c-.168.15-.327.26-.483.331a.967.967 0 0 1-.463.094 1.119 1.119 0 0 1-.476-.148 2.653 2.653 0 0 1-.52-.394 5.412 5.412 0 0 1-.315-.31 1.12 1.12 0 0 1-.175-.242.772.772 0 0 1-.076-.252 2.521 2.521 0 0 1-.016-.34c0-.143.002-.253.024-.357a.872.872 0 0 1 .14-.316c.076-.115.189-.249.355-.427.165-.179.384-.401.672-.694.278-.283.494-.5.67-.666.175-.166.309-.282.424-.363a.929.929 0 0 1 .308-.15c.097-.025.197-.03.32-.03a1.7 1.7 0 0 1 .293.02.79.79 0 0 1 .24.08c.076.039.153.094.24.169.088.075.185.17.301.29Z" fill="url(#d)"/><path d="M6.406 6.379c-.16 0-.29.192-.29.43 0 .237.13.43.29.43h2.13c.16 0 .29-.193.29-.43 0-.238-.13-.43-.29-.43h-2.13Zm-2.33-2.315c-.093-.06-.34-.166-.611.08-.26.237-.212.516-.097.614.179.153 1.27.904 1.27.904-.346.3-1 .828-1.131 1.01-.131.184-.101.462.104.638.2.172.445.282.63.136.128-.1 1.742-1.592 1.742-1.592s.104-.139.098-.258c-.008-.13-.176-.234-.176-.234S4.136 4.103 4.076 4.064Z" fill="url(#e)"/></g></svg>